<?xml version="1.0" encoding="UTF-8"?>
<!DOCTYPE svg PUBLIC "-//W3C//DTD SVG 1.1//EN" "http://www.w3.org/Graphics/SVG/1.1/DTD/svg11.dtd">
<!-- Creator: CorelDRAW X8 -->
<svg xmlns="http://www.w3.org/2000/svg" xml:space="preserve" width="100%" height="100%" version="1.1" style="shape-rendering:geometricPrecision; text-rendering:geometricPrecision; image-rendering:optimizeQuality; fill-rule:evenodd; clip-rule:evenodd" preserveAspectRatio="none"
viewBox="0 0 16667 4167"
 xmlns:xlink="http://www.w3.org/1999/xlink">
 <defs>
  <style type="text/css">
   <![CDATA[
    .fil0 {fill:none}
    .fil23 {fill:#154E76}
    .fil19 {fill:#1A1A1A}
    .fil24 {fill:#1D6CA1}
    .fil8 {fill:#1D7F45}
    .fil1 {fill:#20616E}
    .fil11 {fill:#223273}
    .fil9 {fill:#27AE60}
    .fil2 {fill:#2C8597}
    .fil12 {fill:#2F459E}
    .fil3 {fill:#43C3C3}
    .fil27 {fill:#468C46}
    .fil28 {fill:#61BF61}
    .fil14 {fill:#8E2A21}
    .fil5 {fill:#91E1A8}
    .fil21 {fill:#A9405D}
    .fil25 {fill:#ACCFE3}
    .fil17 {fill:#B1710D}
    .fil15 {fill:#C23A2E}
    .fil6 {fill:#C4397A}
    .fil26 {fill:#E6EFF6}
    .fil22 {fill:#E8587F}
    .fil18 {fill:#F39C11}
    .fil4 {fill:#FCA078}
    .fil16 {fill:#FEFEFE}
    .fil13 {fill:white}
    .fil7 {fill:white}
    .fil20 {fill:#1A1A1A;fill-rule:nonzero}
    .fil10 {fill:white;fill-rule:nonzero}
   ]]>
  </style>
 </defs>
 <g id="Layer_x0020_1">
  <metadata id="CorelCorpID_0Corel-Layer"/>
  <rect class="fil0" width="16667" height="4167"/>
  <g id="_1992229018352">
   <path class="fil1" d="M1696 1924l0 26c0,68 -56,123 -124,123l-1061 0c-68,0 -124,-55 -124,-123l0 -26 1309 0zm-654 -1821c28,0 51,17 51,39l0 25 76 0c32,0 58,13 58,32l22 0 0 -133 -207 0 -208 0 0 133 23 0c0,-19 26,-32 58,-32l75 0 0 -25c0,-22 23,-39 52,-39z"/>
   <path class="fil2" d="M511 10l1061 0c68,0 124,56 124,123l0 1791c0,68 -56,123 -124,123l-1061 0c-68,0 -124,-55 -124,-123l0 -1791c0,-67 56,-123 124,-123zm404 132l75 0 0 -15c0,-28 23,-51 52,-51 28,0 51,23 51,51l0 15 76 0c32,0 58,26 58,57 0,32 -26,57 -58,57l-254 0c-32,0 -58,-25 -58,-57 0,-31 26,-57 58,-57z"/>
   <g>
    <g>
     <path class="fil3" d="M787 1505c-12,-7 -19,-18 -19,-32l0 -596c0,-14 7,-25 19,-32l356 330 -356 330z"/>
     <path class="fil4" d="M1357 1207l-134 75 -84 -27 -22 -80 11 -77 95 -30 134 75c12,7 19,19 19,32 0,14 -7,25 -19,32z"/>
     <path class="fil5" d="M787 845c12,-6 26,-6 38,0l398 223 0 0 -106 107 -330 -330z"/>
     <path class="fil6" d="M787 1505c12,7 26,7 38,0l398 -223 0 0 -106 -107 -330 330z"/>
    </g>
    <path class="fil7" d="M961 711c-5,-4 -10,-11 -12,-16l17 -7c1,2 2,5 5,8 4,5 10,8 17,8 7,0 14,-3 18,-8 3,-5 5,-11 5,-18l0 -6c-12,15 -39,13 -53,-3 -16,-17 -16,-44 0,-61 16,-15 39,-17 53,-3 0,0 0,0 0,0l0 -7 18 0 0 78c0,20 -8,31 -17,38 -6,5 -16,7 -24,7 -11,0 -20,-4 -27,-10zm436 4l0 0 18 -41 -31 -71 17 0 23 51 21 -51 18 0 -48 112 -18 0zm-84 -39l0 0c-5,-5 -8,-12 -8,-19 0,-6 2,-12 7,-17 7,-8 18,-11 29,-11 7,0 14,2 19,5 0,-13 -10,-18 -19,-18 -8,0 -14,4 -17,11l-16 -6c3,-8 12,-21 33,-21 10,0 20,4 27,11 7,7 9,15 9,27l0 43 -18 0 0 -7c-2,2 -5,5 -9,7 -5,2 -10,3 -15,3 -8,0 -16,-3 -22,-8zm-556 -37l0 0c0,-21 16,-44 44,-44 27,0 43,23 43,44 0,20 -16,43 -43,43 -28,0 -44,-23 -44,-43zm94 0l0 0c0,-21 16,-44 44,-44 27,0 43,23 43,44 0,20 -16,43 -43,43 -28,0 -44,-23 -44,-43zm-211 23l0 0c-27,-27 -26,-69 0,-95 14,-13 31,-20 48,-20 17,1 34,7 46,19l-13 13c-18,-18 -48,-18 -67,1 -18,19 -19,50 0,69 19,19 50,20 68,1 7,-6 9,-15 10,-23l-44 0 0 -18 62 0c1,4 1,9 1,14 0,15 -6,31 -17,41 -11,12 -28,18 -45,18 -18,0 -36,-7 -49,-20zm440 7l0 0c-15,-17 -15,-44 0,-61 16,-17 42,-17 57,0 5,5 8,12 11,20l-58 24c4,7 10,13 21,13 9,0 15,-3 22,-12l15 10 0 0c-2,2 -4,5 -6,6 -15,17 -46,17 -62,0zm109 12l0 0 0 -114 37 0c22,0 39,16 39,35 0,19 -16,34 -36,34l-22 0 0 45 -18 0zm88 0l0 0 0 -114 17 0 0 114 -17 0zm-236 -1l0 0 0 -128 20 0 0 128 -20 0zm318 -32l0 0c-4,-3 -10,-4 -16,-4 -13,0 -20,6 -20,13 0,8 8,11 15,11 10,0 21,-8 21,-20zm-534 -9l0 0c0,-13 -9,-26 -24,-26 -16,0 -25,13 -25,26 0,12 9,26 25,26 15,0 24,-14 24,-26zm94 0l0 0c0,-13 -9,-26 -24,-26 -16,0 -24,13 -24,26 0,12 8,26 24,26 15,0 24,-14 24,-26zm92 8l0 0c0,-1 1,-2 1,-3 0,-1 0,-1 0,-1 0,-1 0,-3 0,-4 0,-2 0,-3 0,-5 0,0 0,0 0,0 0,-2 -1,-3 -1,-4 -4,-10 -12,-17 -22,-17 -13,0 -24,12 -24,26 0,14 11,26 24,26 10,0 19,-8 22,-18zm76 -10l0 0 39 -16c-4,-7 -10,-9 -16,-9 -15,0 -25,17 -23,25zm160 -35l0 0c0,-10 -8,-18 -19,-18l-21 0 0 36 22 0c10,0 18,-8 18,-18z"/>
   </g>
  </g>
  <g id="_1992229022512">
   <path class="fil8" d="M3779 1924l0 26c0,68 -55,123 -123,123l-1062 0c-68,0 -123,-55 -123,-123l0 -26 1308 0zm-654 -1821c29,0 52,17 52,39l0 25 75 0c32,0 58,13 58,32l23 0 0 -133 -208 0 -208 0 0 133 23 0c0,-19 26,-32 58,-32l75 0 0 -25c0,-22 23,-39 52,-39z"/>
   <path class="fil9" d="M2594 10l1062 0c68,0 123,56 123,123l0 1791c0,68 -55,123 -123,123l-1062 0c-68,0 -123,-55 -123,-123l0 -1791c0,-67 55,-123 123,-123zm404 132l75 0 0 -15c0,-28 23,-51 52,-51 29,0 52,23 52,51l0 15 75 0c32,0 58,26 58,57 0,32 -26,57 -58,57l-254 0c-32,0 -58,-25 -58,-57 0,-31 26,-57 58,-57z"/>
   <g>
    <path class="fil7" d="M3065 1133c-45,44 -218,209 -185,273 6,14 45,44 62,53 54,30 104,51 183,51 75,0 133,-22 184,-52 18,-11 56,-39 63,-55 11,-27 -14,-67 -25,-84l-48 -68c-31,-37 -148,-155 -174,-174l-60 56zm-223 238c7,-112 68,-216 132,-296 8,-10 63,-68 66,-76 -22,-18 -111,-102 -153,-97 -26,14 -66,71 -84,105 -42,83 -47,184 -14,273 11,29 35,75 53,91zm565 -1c8,-4 10,-9 15,-17 70,-102 79,-224 29,-336 -16,-36 -44,-76 -71,-102 -11,-11 -18,-19 -41,-10 -32,14 -116,78 -130,97 69,66 194,222 198,368zm-466 -513c12,5 56,-13 146,44 12,8 27,20 38,25 65,-39 99,-73 187,-67 -33,-34 -130,-56 -184,-56 -39,-1 -73,5 -106,15 -20,6 -70,26 -81,39z"/>
    <path class="fil10" d="M2966 711l-22 0 -45 -72 -47 72 -20 0 55 -84 -52 -77 22 0 42 65 44 -65 21 0 -53 77 55 84zm39 -76l0 61 34 0c14,0 24,-3 31,-8 7,-5 10,-13 10,-23 0,-12 -3,-19 -11,-24 -7,-4 -19,-6 -35,-6l-29 0zm0 -16l35 0c11,0 20,-2 26,-5 5,-4 8,-11 8,-21 0,-10 -3,-17 -10,-21 -7,-4 -18,-6 -32,-6l-27 0 0 53zm-19 -69l47 0c21,0 36,3 46,10 10,6 15,16 15,30 0,2 0,4 0,6 0,2 -1,4 -2,8 -1,3 -3,5 -5,8 -1,3 -4,5 -8,8 -3,2 -7,4 -12,6 11,2 19,7 25,14 5,7 8,15 8,25 0,15 -5,26 -14,34 -10,8 -24,12 -43,12l-57 0 0 -161zm155 81c0,20 5,37 14,48 10,12 24,18 43,18 18,0 32,-6 42,-18 9,-11 14,-28 14,-48 0,-21 -5,-38 -14,-50 -10,-11 -24,-17 -42,-17 -19,0 -33,6 -43,17 -9,12 -14,29 -14,50zm134 0c0,12 -2,23 -6,33 -3,10 -8,19 -14,26 -7,8 -15,13 -25,17 -9,4 -20,6 -32,6 -17,0 -31,-3 -42,-10 -12,-7 -21,-16 -27,-29 -6,-12 -8,-27 -8,-43 0,-26 6,-46 20,-61 13,-15 32,-23 57,-23 24,0 43,8 56,23 14,15 21,35 21,61zm143 80l-22 0 -45 -72 -46 72 -21 0 56 -84 -52 -77 22 0 42 65 44 -65 20 0 -52 77 54 84z"/>
   </g>
  </g>
  <g id="_1992229024720">
   <path class="fil11" d="M7946 1924l0 26c0,68 -56,123 -124,123l-1061 0c-68,0 -124,-55 -124,-123l0 -26 1309 0zm-654 -1821c28,0 51,17 51,39l0 25 76 0c32,0 58,13 58,32l22 0 0 -133 -207 0 -208 0 0 133 23 0c0,-19 26,-32 58,-32l75 0 0 -25c0,-22 23,-39 52,-39z"/>
   <path class="fil12" d="M6761 10l1061 0c68,0 124,56 124,123l0 1791c0,68 -56,123 -124,123l-1061 0c-68,0 -124,-55 -124,-123l0 -1791c0,-67 56,-123 124,-123zm404 132l75 0 0 -15c0,-28 23,-51 52,-51 28,0 51,23 51,51l0 15 76 0c32,0 58,26 58,57 0,32 -26,57 -58,57l-254 0c-32,0 -58,-25 -58,-57 0,-31 26,-57 58,-57z"/>
   <g>
    <path class="fil13" d="M7521 569c7,0 19,-1 25,0l0 -21c-5,-1 -20,-1 -25,0 -1,5 0,17 0,21zm0 117l25 0 0 -105 -25 0 0 105zm-584 0l24 0 0 -138c-4,-1 -20,-1 -24,0 -1,4 -2,132 0,138zm395 0l0 -15c-20,0 -20,1 -20,-27 0,-16 0,-32 0,-48l27 0 0 -15c-4,-1 -21,0 -27,0l0 -18 -25 0c-1,7 0,70 0,83 0,40 16,40 45,40zm168 -15c-19,-2 -20,6 -20,-27 0,-16 0,-32 0,-48l26 0 0 -15 -26 0 0 -18 -25 0c-1,7 -1,79 0,92 0,14 6,24 16,29 7,3 14,2 21,2 6,0 8,2 8,-3 0,-4 0,-8 0,-12zm-308 0l0 15c13,0 26,0 39,0 14,0 22,-2 29,-10 13,-13 13,-44 1,-60 -16,-21 -46,0 -50,-26 -1,-6 0,-12 2,-17 2,-5 4,-8 10,-9 6,-1 31,-1 39,-1l0 -15c-7,-1 -31,0 -39,0 -36,1 -41,37 -33,57 15,35 53,4 55,41 1,32 -20,25 -53,25zm409 -90c-33,3 -40,26 -39,59 1,32 17,49 52,46 32,-3 40,-27 38,-59 0,-12 -4,-28 -13,-36 -8,-7 -23,-11 -38,-10zm26 66c-1,9 -3,17 -9,21 -5,4 -17,4 -22,0 -13,-9 -12,-61 -1,-69 6,-4 18,-4 24,0 9,7 9,34 8,48zm41 39l25 0 0 -90c8,0 23,-2 29,3 14,12 4,68 8,87l25 0c-3,-40 13,-102 -38,-105 -14,-1 -36,-1 -49,0l0 105zm-320 -56c0,20 -3,42 14,52 10,6 24,3 37,4l0 -15c-13,-2 -26,5 -26,-13 0,-15 -1,-40 3,-52 5,-13 17,-10 34,-10l0 90 25 0 0 -105c-7,-1 -34,0 -43,0 -31,0 -44,18 -44,49zm-318 56l0 -15c-16,0 -24,2 -26,-9 -1,-9 -2,-52 6,-62 3,-3 8,-4 14,-4 5,0 13,-1 17,1l0 89 25 0 -1 -105c-8,-2 -50,-1 -58,2 -16,4 -25,16 -27,34 -2,13 -3,44 3,55 9,17 24,14 47,14zm64 51l22 0 62 -156 -23 0c-3,8 -25,65 -27,67l-23 -67 -26 0 33 98c2,6 3,5 0,10l-18 48zm-265 -51l25 0 0 -123c6,0 28,0 31,1 14,4 14,39 7,49 -9,11 -16,3 -27,7 -2,4 -1,10 -1,15 13,-3 35,5 48,-12 9,-12 12,-30 8,-47 -4,-16 -14,-28 -31,-28 -9,0 -54,-1 -60,0 -1,4 -1,132 0,138z"/>
    <path class="fil13" d="M6851 1345l0 19c10,14 7,15 21,26 9,6 20,11 32,16 90,31 155,31 249,19l0 -74c-28,6 -54,21 -83,28 -24,7 -75,12 -88,-8 3,-16 22,-19 38,-25 15,-6 29,-10 44,-16l89 -31 0 -83 -239 85c-34,14 -43,19 -63,44zm500 -65l0 84c33,-1 139,-61 212,-61 36,1 62,18 16,34l-228 80 0 83c22,-5 279,-99 309,-109 62,-22 107,-65 39,-100 -59,-31 -131,-39 -201,-39 -37,0 -117,14 -147,28zm-161 -444l-10 0 0 629 144 45c3,-57 0,-218 0,-287l0 -213c0,-27 -3,-47 13,-62 54,-10 44,70 44,109 0,52 0,104 0,155 59,24 124,27 150,-47 19,-55 11,-146 -18,-189 -50,-71 -149,-92 -229,-115l-86 -22c-4,-1 0,1 -4,-1l-4 -2z"/>
   </g>
  </g>
  <g id="_1992229024112">
   <path class="fil14" d="M5863 1924l0 26c0,68 -56,123 -124,123l-1061 0c-68,0 -124,-55 -124,-123l0 -26 1309 0zm-655 -1821c29,0 52,17 52,39l0 25 75 0c32,0 58,13 58,32l23 0 0 -133 -208 0 -207 0 0 133 22 0c0,-19 26,-32 58,-32l76 0 0 -25c0,-22 23,-39 51,-39z"/>
   <path class="fil15" d="M4678 10l1061 0c68,0 124,56 124,123l0 1791c0,68 -56,123 -124,123l-1061 0c-68,0 -124,-55 -124,-123l0 -1791c0,-67 56,-123 124,-123zm403 132l76 0 0 -15c0,-28 23,-51 51,-51 29,0 52,23 52,51l0 15 75 0c32,0 58,26 58,57 0,32 -26,57 -58,57l-254 0c-32,0 -58,-25 -58,-57 0,-31 26,-57 58,-57z"/>
   <g>
    <path class="fil13" d="M5064 1199c-6,-35 122,-17 114,77 -5,60 -70,104 -132,68 -41,-24 -25,-45 -8,-38 4,2 12,10 15,13 24,19 61,15 81,-5 35,-33 20,-90 -25,-103 -14,-4 -42,4 -45,-12zm143 -432c207,0 375,167 375,372 0,205 -168,371 -375,371 -175,0 -322,-119 -364,-280l43 18c27,12 54,23 82,34 20,9 8,2 23,34 5,13 17,29 24,35 22,17 46,32 87,28 48,-4 84,-39 95,-77 3,-9 4,-15 5,-24 2,-13 4,-10 13,-17 31,-23 70,-54 99,-74 28,-19 12,-13 41,-17 62,-10 108,-52 122,-110 8,-33 3,-68 -11,-96 -22,-45 -75,-90 -148,-81 -63,8 -109,52 -124,107 -7,25 4,22 -18,53l-68 93c-22,30 -15,21 -33,24 -12,2 -42,14 -44,14 0,0 -97,-40 -196,-82 23,-183 181,-325 372,-325zm119 160c104,-9 155,131 57,187 -63,36 -141,-10 -148,-78 -6,-57 40,-105 91,-109zm82 112c8,-44 -25,-78 -59,-85 -45,-9 -80,23 -86,58 -18,97 126,121 145,27z"/>
    <path class="fil16" d="M5409 661l25 0c0,-24 -1,-49 0,-72l9 23c2,7 6,15 8,22l19 0c2,-9 11,-26 15,-39 0,0 0,-2 0,-2 1,0 1,-1 1,-1 1,-3 0,-1 1,-2 1,14 -1,63 1,71 27,0 26,3 26,-6 0,-3 0,-5 0,-8 0,-29 1,-73 0,-99l-30 -1c-3,4 -9,22 -11,28 -3,6 -9,22 -12,27l-22 -54 -30 -1c-1,12 -1,108 0,114zm-507 -5c11,4 17,7 30,9 54,4 58,-42 47,-57 -6,-7 -14,-11 -25,-14 -13,-4 -24,-4 -24,-14 0,-11 14,-12 25,-10 13,2 17,10 25,12l0 -26c-17,-8 -45,-13 -61,-1 -21,14 -20,39 -8,52 6,6 17,10 28,12 34,8 16,32 -12,23 -10,-4 -17,-10 -25,-14l0 28zm403 -39c1,-5 9,-33 10,-35l10 35 -20 0zm-6 21l32 0 6 23 27 0 -35 -114 -28 1 -34 113 26 0 6 -23zm-149 23l70 0 0 -22 -43 0 0 -28 40 0 0 -22 -40 0 0 -19 43 0 0 -22 -69 -1 -1 114zm-137 -91l30 0c2,20 -2,76 1,91l26 0 0 -91 30 0 0 -22 -87 -1 0 23z"/>
   </g>
  </g>
  <g id="_1992229026448">
   <path class="fil17" d="M16279 1924l0 26c0,68 -55,123 -123,123l-1062 0c-68,0 -124,-55 -124,-123l0 -26 1309 0zm-654 -1821c29,0 52,17 52,39l0 25 75 0c32,0 58,13 58,32l22 0 0 -133 -207 0 -208 0 0 133 23 0c0,-19 26,-32 58,-32l75 0 0 -25c0,-22 23,-39 52,-39z"/>
   <path class="fil18" d="M15094 10l1062 0c68,0 123,56 123,123l0 1791c0,68 -55,123 -123,123l-1062 0c-68,0 -124,-55 -124,-123l0 -1791c0,-67 56,-123 124,-123zm404 132l75 0 0 -15c0,-28 23,-51 52,-51 29,0 52,23 52,51l0 15 75 0c32,0 58,26 58,57 0,32 -26,57 -58,57l-254 0c-32,0 -58,-25 -58,-57 0,-31 26,-57 58,-57z"/>
   <g>
    <g>
     <path class="fil19" d="M15684 1073c5,59 -5,146 -69,161 -73,18 -94,-81 -51,-127 25,-26 73,-34 120,-34zm20 190c4,6 7,11 11,18 5,6 9,10 13,16 39,50 51,27 68,13l30 -25c35,-34 46,-22 16,-66 -21,-30 -24,-45 -24,-89 0,-39 0,-77 0,-115 0,-93 10,-185 -121,-216 -86,-21 -205,-1 -253,72 -8,13 -37,67 -19,81 5,4 89,14 101,13 16,-1 15,-21 22,-34 19,-40 80,-52 115,-25 23,18 24,64 20,91 -100,10 -214,15 -262,108 -40,78 -21,211 105,225 117,13 159,-58 178,-67z"/>
     <path class="fil13" d="M15862 1397c-171,79 -352,67 -515,-26l-49 -32c-7,-4 -16,-2 -11,9 8,15 55,54 70,67 129,108 321,126 469,43 15,-8 72,-44 78,-57 3,-7 1,-15 -5,-18 -7,-3 -29,11 -37,14zm48 59c21,6 49,-59 53,-86 4,-31 -1,-36 -31,-38 -31,-3 -61,1 -88,16 -8,5 -18,16 2,14 22,-2 45,-6 68,-3 44,6 -6,76 -4,97z"/>
    </g>
    <path class="fil20" d="M15342 658c0,1 -1,2 -2,2 0,1 -2,1 -3,2 -2,0 -4,0 -8,0 -3,0 -6,0 -7,0 -2,-1 -3,-1 -4,-2 -1,0 -1,-1 -1,-2l0 -8c-4,4 -9,8 -15,10 -5,3 -11,4 -18,4 -5,0 -10,-1 -15,-2 -5,-2 -9,-4 -12,-7 -3,-2 -6,-6 -8,-10 -2,-4 -3,-9 -3,-15 0,-6 1,-11 4,-15 2,-5 6,-8 10,-11 5,-3 11,-5 18,-7 7,-1 15,-2 24,-2l11 0 0 -6c0,-3 -1,-6 -1,-9 -1,-2 -2,-4 -4,-6 -1,-1 -3,-3 -6,-3 -2,-1 -5,-1 -9,-1 -5,0 -9,0 -13,1 -4,1 -8,2 -11,4 -2,1 -5,2 -7,3 -2,1 -4,2 -5,2 -1,0 -1,0 -2,-1 -1,0 -1,-1 -2,-2 0,-1 0,-2 -1,-4 0,-1 0,-3 0,-5 0,-2 0,-4 1,-5 0,-2 1,-3 2,-4 1,-1 3,-3 5,-4 3,-1 6,-2 10,-4 4,-1 8,-2 12,-2 4,-1 9,-2 13,-2 9,0 16,1 21,3 6,1 11,4 15,7 4,3 6,8 8,13 2,5 3,11 3,18l0 70zm-29 -45l-12 0c-4,0 -8,1 -12,1 -3,1 -6,2 -8,4 -2,1 -4,3 -5,5 -1,2 -1,4 -1,6 0,5 1,8 4,11 3,2 7,3 12,3 4,0 8,-1 11,-3 3,-2 7,-5 11,-9l0 -18zm224 44c0,1 0,2 -1,2 0,1 -1,1 -2,2 -1,0 -3,1 -5,1 -1,0 -4,0 -7,0 -3,0 -5,0 -7,0 -2,0 -3,-1 -5,-1 -1,-1 -1,-1 -2,-2 0,0 -1,-1 -1,-2l0 -61c0,-3 0,-7 -1,-9 0,-3 -1,-6 -3,-8 -1,-2 -3,-3 -5,-5 -2,-1 -4,-1 -7,-1 -4,0 -7,1 -11,4 -3,3 -7,7 -11,12l0 68c0,1 -1,2 -1,2 0,1 -1,1 -2,2 -2,0 -3,1 -5,1 -2,0 -4,0 -7,0 -3,0 -5,0 -7,0 -2,0 -4,-1 -5,-1 -1,-1 -2,-1 -2,-2 -1,0 -1,-1 -1,-2l0 -61c0,-3 0,-7 -1,-9 0,-3 -1,-6 -3,-8 -1,-2 -3,-3 -5,-5 -2,-1 -4,-1 -7,-1 -4,0 -7,1 -11,4 -4,3 -7,7 -12,12l0 68c0,1 0,2 0,2 -1,1 -2,1 -3,2 -1,0 -2,1 -4,1 -2,0 -4,0 -7,0 -3,0 -6,0 -7,0 -2,0 -4,-1 -5,-1 -1,-1 -2,-1 -2,-2 -1,0 -1,-1 -1,-2l0 -103c0,-1 0,-1 1,-2 0,-1 1,-1 2,-2 1,0 2,0 4,0 1,-1 3,-1 6,-1 2,0 4,0 6,1 1,0 3,0 4,0 0,1 1,1 1,2 1,1 1,1 1,2l0 12c6,-6 12,-11 17,-14 6,-3 12,-5 18,-5 5,0 8,1 12,2 3,1 6,2 9,4 3,1 5,3 7,6 2,2 4,4 5,7 3,-3 6,-6 9,-8 3,-3 6,-5 9,-6 3,-2 6,-3 9,-3 3,-1 6,-2 9,-2 7,0 13,2 17,4 5,2 9,5 12,9 3,4 5,9 6,14 1,6 2,11 2,17l0 66zm118 1c0,1 -1,2 -1,2 -1,1 -2,1 -4,2 -2,0 -4,0 -8,0 -3,0 -6,0 -7,0 -2,-1 -3,-1 -4,-2 0,0 -1,-1 -1,-2l0 -8c-4,4 -9,8 -14,10 -6,3 -12,4 -19,4 -5,0 -10,-1 -15,-2 -5,-2 -9,-4 -12,-7 -3,-2 -6,-6 -8,-10 -2,-4 -3,-9 -3,-15 0,-6 2,-11 4,-15 2,-5 6,-8 11,-11 4,-3 10,-5 17,-7 7,-1 15,-2 25,-2l10 0 0 -6c0,-3 -1,-6 -1,-9 -1,-2 -2,-4 -4,-6 -1,-1 -3,-3 -6,-3 -2,-1 -5,-1 -9,-1 -5,0 -9,0 -13,1 -4,1 -7,2 -10,4 -3,1 -6,2 -8,3 -2,1 -3,2 -5,2 0,0 -1,0 -2,-1 -1,0 -1,-1 -2,-2 0,-1 0,-2 -1,-4 0,-1 0,-3 0,-5 0,-2 0,-4 1,-5 0,-2 1,-3 2,-4 1,-1 3,-3 6,-4 2,-1 6,-2 9,-4 4,-1 8,-2 12,-2 5,-1 9,-2 14,-2 8,0 15,1 21,3 5,1 10,4 14,7 4,3 6,8 8,13 2,5 3,11 3,18l0 70zm-29 -45l-12 0c-4,0 -8,1 -12,1 -3,1 -6,2 -8,4 -2,1 -3,3 -4,5 -1,2 -2,4 -2,6 0,5 2,8 4,11 3,2 7,3 12,3 4,0 8,-1 11,-3 4,-2 7,-5 11,-9l0 -18zm131 36c0,3 0,4 0,6 0,2 -1,3 -1,4 -1,1 -1,1 -2,2 0,0 -1,0 -2,0l-68 0c-2,0 -4,0 -5,-2 -1,-1 -2,-3 -2,-7l0 -5c0,-1 0,-3 1,-4 0,-1 0,-2 0,-3 1,-1 1,-2 2,-3 0,-1 1,-3 2,-4l39 -59 -37 0c-1,0 -3,-1 -4,-3 0,-2 -1,-5 -1,-9 0,-2 0,-4 0,-6 1,-1 1,-3 1,-3 1,-1 1,-2 2,-2 0,-1 1,-1 2,-1l64 0c1,0 2,0 3,0 1,1 1,1 2,2 0,0 1,1 1,2 0,1 0,3 0,4l0 6c0,2 0,3 0,4 0,1 0,2 -1,4 0,1 0,2 -1,3 -1,1 -1,2 -2,3l-39 60 41 0c1,0 2,0 2,0 1,1 1,1 2,2 0,1 1,2 1,4 0,1 0,3 0,5zm124 -44c0,8 -2,16 -4,24 -2,7 -6,13 -11,18 -4,6 -10,10 -17,13 -8,2 -16,4 -26,4 -9,0 -17,-1 -24,-4 -7,-2 -12,-6 -17,-11 -4,-5 -8,-11 -10,-18 -2,-7 -3,-15 -3,-24 0,-9 1,-17 3,-24 3,-8 6,-14 11,-19 5,-5 11,-9 18,-12 7,-3 15,-5 25,-5 9,0 17,2 24,4 7,3 13,6 17,11 5,5 8,11 10,18 3,7 4,15 4,25zm-31 1c0,-5 0,-10 -1,-14 -1,-5 -2,-8 -4,-11 -2,-4 -5,-6 -8,-8 -3,-2 -7,-3 -12,-3 -4,0 -8,1 -12,3 -3,1 -6,4 -8,7 -2,3 -3,6 -4,11 -2,4 -2,9 -2,14 0,6 0,10 1,15 1,4 2,8 4,11 2,3 5,5 8,7 4,2 8,3 12,3 5,0 9,-1 12,-3 3,-1 6,-4 8,-7 2,-3 4,-6 5,-11 1,-4 1,-9 1,-14zm154 51c0,1 -1,2 -1,2 0,1 -1,1 -2,2 -1,0 -3,1 -5,1 -2,0 -4,0 -7,0 -3,0 -5,0 -7,0 -2,0 -4,-1 -5,-1 -1,-1 -2,-1 -2,-2 -1,0 -1,-1 -1,-2l0 -59c0,-5 0,-9 -1,-11 -1,-3 -2,-6 -3,-8 -1,-2 -3,-3 -6,-5 -2,-1 -4,-1 -7,-1 -4,0 -8,1 -12,4 -3,3 -7,7 -12,12l0 68c0,1 0,2 0,2 -1,1 -1,1 -3,2 -1,0 -2,1 -4,1 -2,0 -4,0 -7,0 -3,0 -6,0 -7,0 -2,0 -4,-1 -5,-1 -1,-1 -2,-1 -2,-2 -1,0 -1,-1 -1,-2l0 -103c0,-1 0,-1 1,-2 0,-1 1,-1 2,-2 1,0 2,0 4,0 1,-1 3,-1 6,-1 2,0 4,0 6,1 1,0 3,0 4,0 1,1 1,1 2,2 0,1 0,1 0,2l0 12c6,-6 12,-11 18,-14 6,-3 12,-5 18,-5 8,0 14,2 18,4 5,2 9,5 12,9 3,4 5,9 7,14 1,6 2,12 2,20l0 63z"/>
   </g>
  </g>
  <g id="_1992229029584">
   <path class="fil21" d="M12113 1924l0 26c0,68 -56,123 -124,123l-1061 0c-68,0 -124,-55 -124,-123l0 -26 1309 0zm-655 -1821c29,0 52,17 52,39l0 25 75 0c32,0 58,13 58,32l23 0 0 -133 -208 0 -207 0 0 133 22 0c0,-19 26,-32 58,-32l76 0 0 -25c0,-22 23,-39 51,-39z"/>
   <path class="fil22" d="M10928 10l1061 0c68,0 124,56 124,123l0 1791c0,68 -56,123 -124,123l-1061 0c-68,0 -124,-55 -124,-123l0 -1791c0,-67 56,-123 124,-123zm403 132l76 0 0 -15c0,-28 23,-51 51,-51 29,0 52,23 52,51l0 15 75 0c32,0 58,26 58,57 0,32 -26,57 -58,57l-254 0c-32,0 -58,-25 -58,-57 0,-31 26,-57 58,-57z"/>
   <g>
    <path class="fil13" d="M11321 593c0,16 0,32 0,48 0,18 -1,29 7,43 2,4 8,9 12,12 12,6 28,5 39,-2 3,-1 6,-3 7,-5 2,-1 4,-5 6,-6l2 14 28 0c0,-7 -1,-17 -1,-25l0 -79 -33 0c0,16 0,33 0,49 0,8 1,16 -2,22 -2,5 -7,9 -15,9 -18,1 -17,-20 -17,-32 0,-16 0,-32 0,-48l-33 0zm126 0c-1,3 0,21 0,25 0,9 0,18 0,27 0,10 0,45 1,53l32 -1c1,-15 0,-32 0,-48 0,-8 -1,-16 3,-22 2,-5 7,-10 15,-10 17,0 17,16 17,32 0,11 -1,39 0,48l33 0c0,-9 0,-37 0,-48 0,-16 0,-30 -7,-42 -11,-17 -34,-21 -51,-11 -8,4 -9,8 -13,11 -1,-2 -1,-11 -2,-14l-28 0zm152 40c0,-11 9,-20 19,-21 13,0 20,9 20,21l-39 0zm68 23c3,-12 0,-31 -5,-41 -12,-24 -41,-30 -65,-19 -22,10 -33,38 -28,63 5,27 26,40 53,41 12,0 31,-2 40,-7l-4 -22c-3,1 -6,2 -9,2 -17,4 -48,5 -50,-17l68 0zm-462 -75l39 0 0 116c7,1 30,0 33,1l0 -117 40 0 0 -28 -112 0c0,3 0,25 0,28zm546 38c1,-2 5,-19 6,-22 -5,-4 -19,-6 -27,-6 -10,-1 -19,1 -27,5 -16,8 -24,27 -15,42 9,17 35,19 40,25 3,4 2,9 -1,11 -4,3 -9,3 -14,3 -10,-1 -17,-4 -25,-8 -1,1 -2,4 -2,6 -1,4 -4,15 -4,17 11,8 40,10 55,5 18,-6 28,-21 24,-39 -3,-10 -8,-14 -15,-19 -11,-7 -31,-8 -30,-18 0,-5 4,-7 8,-8 12,-1 21,4 27,6zm-595 78l33 0 0 -104 -33 0 0 104zm13 -149c-22,4 -17,37 7,32 22,-4 16,-37 -7,-32z"/>
    <path class="fil13" d="M11450 932c50,-1 96,-29 123,-67 23,-34 36,-73 31,-115 -16,-4 -53,13 -65,19 -55,31 -99,91 -92,156 0,6 -1,5 3,7zm339 374c-29,-8 -60,-35 -73,-53 -42,-54 -50,-133 -13,-188 27,-42 31,-37 63,-61 -6,-13 -41,-42 -58,-51 -60,-34 -110,-33 -174,-8 -91,34 -99,1 -174,-14 -35,-7 -64,-4 -94,7 -49,18 -92,61 -113,103 -54,111 -11,256 41,343 26,44 60,92 102,114 29,16 58,15 88,3 29,-12 48,-23 85,-23 25,0 43,2 65,11 16,6 31,15 50,19 57,11 100,-34 130,-72 10,-13 18,-26 28,-40 10,-15 44,-74 47,-90z"/>
   </g>
  </g>
  <g id="_1992229032048">
   <path class="fil23" d="M14196 1924l0 26c0,68 -56,123 -124,123l-1061 0c-68,0 -124,-55 -124,-123l0 -26 1309 0zm-654 -1821c28,0 51,17 51,39l0 25 76 0c32,0 58,13 58,32l22 0 0 -133 -207 0 -208 0 0 133 23 0c0,-19 26,-32 58,-32l75 0 0 -25c0,-22 23,-39 52,-39z"/>
   <path class="fil24" d="M13011 10l1061 0c68,0 124,56 124,123l0 1791c0,68 -56,123 -124,123l-1061 0c-68,0 -124,-55 -124,-123l0 -1791c0,-67 56,-123 124,-123zm404 132l75 0 0 -15c0,-28 23,-51 52,-51 28,0 51,23 51,51l0 15 76 0c32,0 58,26 58,57 0,32 -26,57 -58,57l-254 0c-32,0 -58,-25 -58,-57 0,-31 26,-57 58,-57z"/>
   <g>
    <g>
     <path class="fil25" d="M13394 1431l-9 60c-2,10 6,19 16,19l117 0c13,0 25,-10 27,-23l1 -6 22 -138 2 -7c2,-14 13,-24 27,-24l18 0c112,0 200,-45 226,-176 11,-55 5,-100 -23,-132 -9,-10 -20,-18 -32,-25l-77 27 -244 128 -110 34 39 263z"/>
     <path class="fil26" d="M13428 1220l1 -6 -1 6c2,-15 16,-26 31,-26l66 0c128,0 229,-52 259,-202 1,-4 1,-8 2,-13l-50 -72 -289 -4 -69 293 50 24z"/>
     <path class="fil13" d="M13466 980c2,-9 8,-17 16,-20 3,-2 7,-3 12,-3l175 0c20,0 40,1 57,4 6,1 10,2 15,3 5,1 10,2 14,3 2,1 5,2 7,2 8,3 16,7 24,10 9,-55 0,-93 -30,-127 -34,-37 -94,-53 -171,-53l-223 0c-16,0 -29,11 -32,26l-92 584c-2,12 7,22 18,22l138 0 35 -217 37 -234z"/>
    </g>
    <g>
     <path class="fil25" d="M13678 601c-3,20 -19,20 -34,20l-9 0 6 -38c1,-2 3,-4 5,-4l4 0c10,0 20,0 25,6 3,4 4,9 3,16zm-7 -54l-57 0c-4,0 -8,3 -8,7l-24 147c0,3 2,5 5,5l30 0c3,0 5,-2 5,-4l7 -42c1,-4 4,-7 8,-7l18 0c38,0 60,-18 66,-54 2,-16 0,-28 -8,-37 -8,-10 -22,-15 -42,-15zm134 107c-2,15 -15,26 -31,26 -8,0 -14,-3 -18,-8 -4,-4 -6,-11 -5,-19 3,-15 16,-26 31,-26 8,0 15,2 19,7 4,5 6,12 4,20zm39 -54l-28 0c-2,0 -4,2 -4,4l-2 8 -2 -3c-6,-8 -19,-11 -32,-11 -31,0 -57,23 -62,55 -3,16 1,31 10,42 9,10 21,14 35,14 25,0 38,-16 38,-16l-1 8c0,3 2,5 5,5l25 0c4,0 7,-3 8,-7l15 -93c0,-3 -2,-6 -5,-6zm33 -49l-24 150c-1,3 2,5 5,5l23 0c4,0 8,-3 8,-7l24 -146c0,0 0,-1 0,-1l0 0c0,-2 -2,-5 -5,-5l-27 0c-2,0 -4,2 -4,4z"/>
     <path class="fil13" d="M13266 601c-3,20 -19,20 -34,20l-9 0 6 -38c1,-2 3,-4 5,-4l4 0c11,0 20,0 25,6 4,4 4,9 3,16zm-6 -54l-58 0c-4,0 -7,3 -8,7l-23 147c-1,3 1,5 4,5l28 0c4,0 7,-3 8,-7l6 -39c1,-4 4,-7 8,-7l18 0c38,0 60,-18 66,-54 3,-16 0,-28 -7,-37 -8,-10 -23,-15 -42,-15zm134 107c-3,15 -16,26 -32,26 -8,0 -14,-3 -18,-8 -4,-4 -6,-11 -4,-19 2,-15 15,-26 31,-26 7,0 14,2 18,7 4,5 6,12 5,20zm38 -54l-27 0c-3,0 -5,2 -5,4l-1 8 -2 -3c-6,-8 -20,-11 -33,-11 -31,0 -57,23 -62,55 -2,16 1,31 11,42 8,10 20,14 34,14 25,0 39,-16 39,-16l-2 8c0,3 2,5 5,5l25 0c4,0 7,-3 8,-7l15 -93c0,-3 -2,-6 -5,-6zm147 0l-27 0c-3,0 -6,2 -7,4l-38 56 -17 -54c-1,-3 -4,-6 -7,-6l-28 0c-3,0 -5,4 -4,7l30 89 -28 40c-3,3 0,7 4,7l27 0c3,0 5,-1 7,-3l92 -132c3,-3 0,-8 -4,-8z"/>
    </g>
   </g>
  </g>
  <g id="_1992229033680">
   <path class="fil27" d="M10029 1924l0 26c0,68 -55,123 -123,123l-1062 0c-68,0 -123,-55 -123,-123l0 -26 1308 0zm-654 -1821c29,0 52,17 52,39l0 25 75 0c32,0 58,13 58,32l23 0 0 -133 -208 0 -208 0 0 133 23 0c0,-19 26,-32 58,-32l75 0 0 -25c0,-22 23,-39 52,-39z"/>
   <path class="fil28" d="M8844 10l1062 0c68,0 123,56 123,123l0 1791c0,68 -55,123 -123,123l-1062 0c-68,0 -123,-55 -123,-123l0 -1791c0,-67 55,-123 123,-123zm404 132l75 0 0 -15c0,-28 23,-51 52,-51 29,0 52,23 52,51l0 15 75 0c32,0 58,26 58,57 0,32 -26,57 -58,57l-254 0c-32,0 -58,-25 -58,-57 0,-31 26,-57 58,-57z"/>
   <g>
    <path class="fil7" d="M9018 696l20 -24c14,11 29,19 47,19 14,0 23,-6 23,-15l0 0c0,-9 -6,-14 -32,-20 -31,-9 -52,-17 -52,-49l0 0c0,-29 23,-47 55,-47 23,0 42,7 58,20l-18 26c-14,-10 -27,-16 -40,-16 -14,0 -20,6 -20,14l0 0c0,11 6,14 33,21 32,8 50,20 50,47l0 1c0,31 -24,48 -58,48 -23,0 -47,-8 -66,-25zm196 -1c-17,0 -32,-16 -32,-36 0,-19 15,-35 32,-35 18,0 32,16 32,35 0,20 -14,36 -32,36zm9 -98c-20,0 -32,7 -40,19l0 -16 -31 0 0 154 31 0 0 -50c8,9 19,17 37,17 28,0 57,-21 57,-61l0 0c0,-40 -27,-63 -54,-63zm126 98c-18,0 -33,-15 -33,-35 0,-20 15,-36 33,-36 19,0 34,16 34,36 0,20 -15,35 -34,35zm1 -98c-37,0 -65,28 -65,63l0 0c0,34 28,62 64,62 37,0 64,-28 64,-62l0 -1c0,-34 -27,-62 -63,-62zm189 -31c0,11 -9,20 -19,20 -11,0 -20,-9 -20,-20 0,-10 9,-19 20,-19 10,0 19,9 19,19zm54 34l0 -6c0,-9 7,-13 15,-13 6,0 10,1 15,3l0 -27c-6,-2 -13,-3 -24,-3 -12,0 -20,3 -27,9 -6,6 -10,16 -10,29l0 8 -15 0 0 27 14 0 0 92 32 0 0 -92 25 0 38 90c-4,8 -9,11 -15,11 -4,0 -11,-2 -15,-5l-12 24c9,5 21,8 33,8 22,0 32,-18 35,-28l50 -127 -32 0 -29 81 -32 -81 -16 0 -30 0zm-89 0l31 0 0 119 -31 0 0 -119zm-74 85l0 -58 -15 0 0 -28 15 0 0 -31 31 0 0 31 31 0 0 28 -31 0 0 54c0,10 6,12 14,12 6,0 12,-2 17,-5l0 26c-7,5 -16,7 -27,7 -21,0 -35,-8 -35,-36z"/>
    <path class="fil7" d="M9375 803c197,0 357,158 357,353 0,196 -160,354 -357,354 -197,0 -357,-158 -357,-354 0,-195 160,-353 357,-353zm261 285c0,25 -27,41 -50,28 -16,-8 -31,-16 -48,-23 -33,-13 -66,-21 -101,-27 -24,-5 -49,-7 -73,-9 -25,-1 -51,-2 -76,0 -29,1 -58,4 -87,11 -10,2 -21,5 -31,7 -7,2 -13,2 -19,0 -14,-4 -24,-16 -24,-30 -1,-14 8,-28 22,-32 10,-3 20,-6 31,-8 25,-6 51,-10 77,-12 28,-3 56,-3 84,-3 69,2 136,12 201,35 26,9 52,20 76,34 9,5 15,12 17,22 1,2 1,4 1,7zm-324 79c-41,0 -83,5 -124,17 -7,2 -13,2 -20,0 -11,-5 -17,-15 -17,-26 0,-12 8,-22 19,-26 11,-3 23,-6 35,-9 29,-6 58,-9 88,-11 64,-2 126,6 187,26 31,9 60,22 88,39 2,0 3,1 4,2 15,9 17,26 10,38 -8,13 -25,17 -38,9 -8,-4 -16,-9 -24,-13 -36,-18 -74,-30 -114,-37 -30,-6 -61,-9 -94,-9zm6 60c47,1 93,7 138,22 25,8 48,19 71,32 2,1 4,2 5,3 9,7 12,20 6,29 -6,10 -18,13 -28,9 -2,-1 -4,-2 -6,-3 -38,-23 -79,-36 -122,-43 -27,-4 -54,-5 -81,-4 -34,1 -69,6 -103,13 -3,1 -7,2 -10,2 -11,0 -20,-8 -22,-18 -2,-10 4,-20 14,-24 2,-1 4,-1 6,-2 28,-6 56,-11 84,-13 16,-2 32,-2 48,-3z"/>
   </g>
  </g>
  <g id="_1992229036272">
   <g>
    <path class="fil3" d="M559 4037c-23,-12 -36,-35 -36,-60l0 -1143c0,-26 13,-48 36,-61l675 632 -675 632z"/>
    <path class="fil4" d="M1639 3466l-254 144 -158 -51 -43 -154 21 -148 181 -56 253 144c23,13 36,35 36,60 0,26 -13,48 -36,61z"/>
    <path class="fil5" d="M559 2773c23,-12 49,-12 72,0l755 428 0 0 -202 204 -625 -632z"/>
    <path class="fil6" d="M559 4037c23,13 49,13 72,0l755 -427 0 0 -202 -205 -625 632z"/>
   </g>
   <path class="fil7" d="M888 2516c-9,-8 -17,-21 -22,-30l32 -13c2,4 5,10 10,15 8,9 19,15 32,15 12,0 26,-6 34,-16 6,-9 9,-21 9,-33l0 -13c-23,30 -73,25 -101,-5 -29,-32 -29,-85 1,-117 30,-30 74,-33 100,-5 0,0 0,0 0,0l0 -14 34 0 0 150c0,38 -14,60 -31,72 -13,9 -31,14 -46,14 -21,0 -38,-7 -52,-20zm828 9l0 0 33 -79 -59 -137 34 0 42 97 41 -97 34 0 -91 216 -34 0zm-160 -76l0 0c-9,-9 -14,-23 -14,-36 -1,-12 3,-24 12,-33 13,-14 34,-20 55,-20 14,0 26,2 36,8 0,-24 -19,-34 -35,-34 -15,0 -28,8 -33,22l-30 -12c5,-15 22,-40 62,-40 20,0 39,7 52,20 12,14 16,30 16,53l0 83 -33 0 0 -15c-4,5 -11,11 -18,14 -8,4 -18,6 -27,6 -15,0 -32,-5 -43,-16zm-1054 -71l0 0c0,-40 30,-83 82,-83 53,0 83,43 83,83 0,39 -30,83 -83,83 -52,0 -82,-44 -82,-83zm179 0l0 0c0,-40 30,-83 82,-83 52,0 82,43 82,83 0,39 -30,83 -82,83 -52,0 -82,-44 -82,-83zm-402 44l0 0c-50,-51 -48,-131 2,-181 25,-26 58,-38 91,-38 31,0 62,12 87,35l-25 26c-35,-35 -92,-35 -127,1 -35,37 -36,96 -1,133 36,36 95,38 130,2 12,-13 16,-29 19,-45l-84 0 0 -35 118 0c1,9 2,18 2,27 0,29 -13,60 -32,80 -23,22 -54,34 -86,34 -34,0 -68,-14 -94,-39zm836 14l0 0c-29,-32 -29,-85 0,-117 29,-33 79,-33 108,-1 9,11 15,25 21,39l-110 46c7,13 19,25 39,25 17,0 29,-6 41,-23l29 19 0 0c-3,5 -8,9 -11,12 -29,33 -88,33 -117,0zm206 24l0 0 0 -219 70 0c43,0 75,30 75,66 0,37 -31,66 -68,66l-44 0 0 87 -33 0zm167 0l0 0 0 -219 33 0 0 219 -33 0zm-447 -4l0 0 0 -245 36 0 0 245 -36 0zm604 -61l0 0c-9,-5 -21,-8 -32,-8 -24,0 -37,12 -37,26 0,14 14,21 27,21 19,0 42,-15 42,-39zm-1015 -17l0 0c0,-24 -16,-50 -46,-50 -29,0 -45,26 -45,50 0,24 16,50 45,50 30,0 46,-26 46,-50zm179 0l0 0c0,-24 -17,-50 -46,-50 -29,0 -46,26 -46,50 0,24 17,50 46,50 29,0 46,-26 46,-50zm175 15l0 0c0,-1 1,-3 1,-6 0,0 0,-1 0,-1 1,-3 1,-5 1,-8 0,-3 0,-6 -1,-9 0,0 0,-1 0,-1 -1,-2 -1,-5 -2,-7 -6,-20 -23,-33 -42,-33 -25,0 -45,23 -44,50 0,28 20,50 44,50 20,0 36,-14 43,-35zm144 -18l0 0 74 -31c-8,-13 -20,-17 -31,-17 -28,0 -47,31 -43,48zm304 -67l0 0c0,-19 -15,-35 -37,-35l-41 0 0 70 42 0c20,0 36,-16 36,-35z"/>
  </g>
  <g id="_1992229037072">
   <path class="fil7" d="M3011 3325c-86,84 -414,400 -352,523 14,26 87,83 119,101 103,57 198,98 347,98 143,0 253,-41 350,-100 34,-21 105,-74 118,-105 22,-51 -27,-129 -46,-162l-93 -130c-58,-70 -280,-296 -329,-333l-114 108zm-422 456c13,-214 128,-414 249,-567 15,-19 121,-131 126,-145 -43,-35 -211,-195 -291,-187 -48,28 -125,136 -158,201 -81,159 -90,354 -26,524 20,55 66,142 100,174zm1072 -2c13,-8 17,-18 27,-32 134,-196 150,-430 56,-645 -30,-68 -85,-145 -135,-195 -21,-20 -34,-37 -78,-18 -60,25 -221,148 -246,186 130,124 368,423 376,704zm-886 -983c23,9 107,-24 278,84 23,15 52,39 72,48 122,-75 188,-139 354,-129 -62,-64 -245,-106 -349,-107 -73,-1 -138,10 -201,29 -37,12 -133,51 -154,75z"/>
   <path class="fil10" d="M2823 2516l-41 0 -86 -137 -88 137 -39 0 105 -160 -98 -148 41 0 80 124 83 -124 39 0 -99 147 103 161zm75 -146l0 117 64 0c26,0 46,-5 59,-15 13,-9 19,-24 19,-45 0,-21 -7,-36 -21,-44 -14,-9 -36,-13 -66,-13l-55 0zm0 -29l66 0c21,0 37,-4 48,-11 11,-8 17,-21 17,-40 0,-20 -7,-33 -20,-40 -13,-8 -33,-11 -61,-11l-50 0 0 102zm-37 -133l89 0c39,0 69,6 88,18 19,13 28,32 28,58 0,4 0,8 0,12 -1,4 -2,8 -4,14 -2,6 -5,12 -8,17 -4,5 -9,10 -16,15 -6,5 -14,8 -23,11 20,4 36,13 47,27 11,13 16,30 16,49 0,28 -9,49 -28,65 -18,15 -45,22 -81,22l-108 0 0 -308zm294 155c0,39 9,70 27,93 18,22 45,34 81,34 35,0 62,-12 80,-34 18,-23 27,-54 27,-93 0,-41 -9,-73 -27,-95 -18,-22 -45,-33 -80,-33 -35,0 -62,11 -80,33 -19,22 -28,54 -28,95zm254 0c0,23 -4,44 -10,64 -7,19 -16,36 -28,50 -12,14 -27,25 -46,33 -18,7 -39,11 -62,11 -31,0 -58,-7 -80,-20 -22,-13 -39,-32 -50,-55 -11,-24 -17,-52 -17,-84 0,-49 13,-88 39,-116 26,-29 62,-43 108,-43 45,0 81,14 107,43 26,29 39,67 39,117zm272 153l-41 0 -86 -137 -88 137 -39 0 105 -160 -98 -148 41 0 80 124 83 -124 39 0 -99 147 103 161z"/>
  </g>
  <g id="_1992229038480">
   <path class="fil13" d="M7727 2244c13,0 35,-2 46,1l1 -40c-9,-2 -38,-3 -46,0 -3,8 -2,31 -1,39zm0 224l47 0 0 -201 -47 0 0 201zm-1108 1l46 -1 0 -263c-9,-2 -38,-3 -46,0 -3,6 -3,251 0,264zm749 -1l0 -29c-39,0 -37,2 -37,-52 0,-30 0,-61 0,-91l50 0 0 -28c-8,-3 -40,-1 -50,-1l0 -34 -47 0c-2,14 -1,134 -1,159 0,76 30,76 85,76zm318 -28c-35,-5 -38,11 -38,-53 0,-30 0,-60 0,-90l50 -1 1 -29 -51 0 0 -34 -47 0c-1,14 -1,152 0,175 0,27 12,47 31,56 12,6 26,4 40,4 10,0 14,3 15,-6 0,-7 0,-15 -1,-22zm-583 -1l0 29c24,0 49,0 73,0 27,0 42,-4 55,-18 25,-26 25,-85 3,-115 -31,-41 -88,-1 -95,-50 -1,-11 -1,-24 3,-33 4,-10 8,-15 20,-18 11,-2 59,-2 73,0l0 -29c-13,-3 -58,-2 -73,-1 -69,3 -79,71 -63,109 29,67 101,8 104,79 2,60 -38,47 -100,47zm775 -172c-62,6 -76,49 -74,113 2,62 33,94 99,88 61,-5 75,-51 72,-114 -1,-22 -7,-53 -24,-68 -16,-14 -44,-21 -73,-19zm49 128c-2,17 -5,30 -16,38 -11,9 -32,9 -43,1 -23,-17 -23,-117 0,-132 11,-8 33,-8 44,0 18,14 18,65 15,93zm78 73l48 0 0 -172c15,0 44,-3 54,5 28,23 8,132 16,168l47 -1c-6,-76 26,-194 -72,-201 -26,-2 -68,-2 -92,0l-1 201zm-606 -108c0,39 -6,82 25,101 20,12 46,6 72,8l-1 -29c-25,-4 -49,10 -49,-26 0,-27 -2,-76 6,-99 9,-24 32,-19 64,-19l0 172 47 0 0 -201c-13,-1 -63,0 -80,0 -59,0 -84,34 -84,93zm-604 108l0 -29c-30,0 -44,5 -48,-16 -3,-18 -5,-101 11,-119 5,-6 15,-8 25,-8 10,0 25,-1 32,1l0 171 48 0 0 -201c-17,-3 -96,-1 -112,3 -30,8 -46,31 -51,65 -3,26 -5,85 6,106 17,33 46,28 89,27zm122 98l41 0 119 -299 -45 0c-6,15 -47,124 -51,129l-44 -129 -50 0 64 189c4,11 5,9 1,19l-35 91zm-502 -97l46 -1 0 -235c11,0 53,-1 60,1 26,9 26,75 12,95 -16,21 -30,6 -51,12 -3,9 -2,20 -1,29 25,-4 66,10 90,-22 17,-24 24,-57 15,-91 -7,-30 -25,-52 -58,-53 -17,-1 -103,-2 -113,1 -3,6 -3,251 0,264z"/>
   <path class="fil13" d="M6455 3731l0 36c20,28 14,29 41,50 16,12 38,22 60,30 172,61 295,60 472,37l0 -142c-52,12 -103,40 -156,54 -47,13 -142,22 -167,-16 5,-29 41,-36 71,-47 30,-11 56,-20 84,-30l168 -59 0 -160 -452 162c-65,28 -83,37 -121,85zm950 -125l-2 162c64,-2 264,-117 403,-117 69,1 118,33 31,65l-434 152 1 159c41,-9 529,-188 586,-208 118,-42 203,-125 74,-192 -111,-59 -249,-74 -381,-74 -70,0 -221,26 -278,53zm-306 -850l-20 0 0 1204 274 87c6,-110 0,-418 0,-549l0 -410c0,-51 -6,-89 25,-117 103,-21 82,134 82,208 0,100 0,199 0,298 113,45 235,51 285,-91 37,-106 22,-280 -34,-362 -94,-136 -282,-175 -434,-220l-164 -42c-6,-2 0,1 -7,-2l-7 -4z"/>
  </g>
  <g id="_1992229048912">
   <path class="fil13" d="M4935 3451c-11,-67 231,-32 216,148 -9,114 -133,198 -251,130 -77,-45 -46,-87 -16,-73 9,3 24,19 30,24 44,37 116,30 154,-8 65,-64 36,-173 -48,-198 -27,-8 -80,8 -85,-23zm271 -827c392,0 711,319 711,712 0,393 -319,711 -711,711 -333,0 -612,-228 -690,-536l81 34c51,23 103,45 155,66 38,16 16,3 43,65 10,24 33,56 46,66 42,32 88,62 165,54 91,-8 160,-74 182,-147 4,-17 6,-29 8,-46 4,-25 8,-19 25,-32 59,-44 133,-104 188,-142 52,-37 23,-26 78,-34 116,-19 204,-99 231,-210 15,-63 6,-131 -20,-185 -42,-85 -144,-172 -281,-155 -121,16 -208,100 -237,206 -12,47 9,42 -33,101l-129 178c-41,57 -28,41 -63,46 -22,4 -80,28 -83,27 0,0 -184,-76 -372,-156 43,-351 343,-623 706,-623zm226 306c198,-17 294,250 108,358 -120,69 -268,-20 -281,-150 -11,-109 76,-199 173,-208zm155 214c16,-83 -47,-148 -112,-162 -85,-17 -151,45 -163,112 -34,185 240,232 275,50z"/>
   <path class="fil16" d="M5590 2421l46 0c0,-46 -1,-95 1,-138l16 43c5,14 12,29 16,43l36 0c4,-17 20,-51 27,-74 1,-2 1,-4 2,-5 0,-1 1,-2 1,-3 3,-5 0,-1 2,-3 2,27 -3,122 2,137 51,-1 50,5 50,-13 0,-4 0,-9 0,-14 0,-57 2,-140 0,-190l-57 -1c-6,7 -18,41 -22,52 -5,13 -16,43 -22,52l-42 -103 -57 -1c-2,21 -2,206 1,218zm-963 -9c20,6 32,13 57,15 103,9 111,-79 88,-108 -9,-13 -25,-20 -46,-27 -25,-8 -46,-7 -46,-27 0,-21 27,-23 48,-19 24,4 32,20 48,23l0 -51c-33,-14 -86,-23 -117,-1 -39,28 -37,76 -14,101 10,11 31,18 52,23 66,15 31,61 -23,42 -19,-6 -31,-17 -47,-25l0 54zm765 -76c2,-9 16,-63 19,-66l18 66 -37 0zm-11 40l59 0 12 45 52 -1 -66 -217 -54 0 -65 218 49 -1 13 -44zm-283 45l133 0 0 -43 -82 0 0 -53 75 -1 1 -41 -76 0 0 -37 82 0 0 -43 -132 0 -1 218zm-260 -175l57 0c4,39 -5,146 1,175l49 0 0 -175 58 0 0 -42 -165 -1 0 43z"/>
  </g>
  <g id="_1992229050416">
   <g>
    <path class="fil19" d="M15736 3209c11,115 -9,281 -129,310 -140,34 -180,-157 -97,-245 47,-50 138,-64 226,-65zm39 366c7,10 12,20 22,34 7,11 15,19 23,29 74,96 96,53 129,26l57 -49c67,-64 88,-42 30,-125 -40,-57 -45,-87 -45,-172 0,-73 0,-146 0,-219 0,-178 18,-355 -230,-415 -162,-38 -388,-1 -478,140 -16,23 -71,128 -38,154 10,7 170,28 192,26 31,-4 29,-41 42,-67 37,-76 152,-99 217,-48 45,35 47,124 40,175 -190,19 -407,28 -498,206 -76,151 -39,406 200,433 221,25 301,-111 337,-128z"/>
    <path class="fil13" d="M16075 3831c-325,151 -669,128 -976,-50l-94 -62c-14,-7 -31,-4 -20,19 13,28 103,102 132,127 245,206 608,242 889,83 28,-16 137,-84 148,-110 6,-13 3,-28 -10,-33 -13,-6 -54,19 -69,26zm90 112c41,13 94,-112 101,-165 8,-59 -2,-68 -58,-72 -59,-5 -117,3 -167,31 -15,9 -35,30 3,26 41,-4 86,-11 130,-5 82,11 -12,145 -9,185z"/>
   </g>
   <path class="fil20" d="M15087 2414c0,2 0,4 -2,5 -1,1 -4,2 -7,3 -3,0 -8,0 -14,0 -7,0 -12,0 -15,0 -3,-1 -5,-2 -6,-3 -1,-1 -2,-3 -2,-5l0 -15c-8,8 -17,15 -28,20 -10,5 -22,7 -34,7 -11,0 -21,-1 -29,-4 -9,-3 -17,-7 -23,-12 -7,-6 -12,-12 -15,-20 -4,-8 -5,-18 -5,-28 0,-12 2,-22 6,-30 5,-9 12,-16 21,-21 8,-6 20,-10 33,-13 13,-2 29,-4 46,-4l19 0 0 -12c0,-6 0,-11 -1,-16 -2,-5 -4,-9 -7,-12 -3,-3 -6,-5 -11,-7 -5,-1 -11,-2 -18,-2 -9,0 -18,1 -25,3 -7,2 -14,5 -19,7 -6,3 -11,5 -14,7 -4,2 -7,3 -10,3 -1,0 -3,0 -4,-1 -1,-1 -2,-3 -3,-5 -1,-2 -1,-4 -2,-7 0,-3 -1,-6 -1,-9 0,-5 1,-8 2,-11 0,-3 2,-5 4,-7 2,-2 5,-5 11,-7 5,-3 11,-5 18,-7 7,-3 14,-5 23,-6 8,-1 16,-2 25,-2 16,0 29,1 40,4 11,4 20,8 27,15 7,6 12,14 16,24 3,10 4,21 4,35l0 133zm-55 -85l-21 0c-9,0 -17,1 -23,2 -6,2 -11,4 -15,6 -4,3 -7,6 -9,10 -2,4 -3,8 -3,13 0,8 3,15 8,19 5,5 12,8 22,8 8,0 15,-2 21,-6 7,-4 14,-10 20,-18l0 -34zm426 85c0,1 0,2 -1,3 -1,2 -3,2 -5,3 -2,1 -5,2 -8,2 -4,0 -8,0 -14,0 -5,0 -10,0 -14,0 -3,0 -6,-1 -8,-2 -2,-1 -4,-1 -5,-3 0,-1 -1,-2 -1,-3l0 -118c0,-6 0,-13 -2,-18 -1,-6 -3,-10 -5,-14 -3,-4 -6,-7 -10,-9 -4,-2 -9,-3 -14,-3 -7,0 -14,2 -20,7 -7,6 -15,13 -22,23l0 132c0,1 -1,2 -2,3 -1,2 -2,2 -4,3 -2,1 -5,2 -9,2 -3,0 -8,0 -13,0 -6,0 -10,0 -14,0 -3,0 -6,-1 -8,-2 -3,-1 -4,-1 -5,-3 -1,-1 -1,-2 -1,-3l0 -118c0,-6 -1,-13 -2,-18 -1,-6 -3,-10 -6,-14 -2,-4 -6,-7 -10,-9 -4,-2 -8,-3 -14,-3 -6,0 -13,2 -20,7 -7,6 -14,13 -22,23l0 132c0,1 0,2 -1,3 -1,2 -3,2 -5,3 -2,1 -5,2 -8,2 -4,0 -8,0 -14,0 -5,0 -10,0 -13,0 -4,0 -7,-1 -9,-2 -2,-1 -4,-1 -4,-3 -1,-1 -2,-2 -2,-3l0 -199c0,-1 1,-2 1,-3 1,-2 2,-2 4,-3 2,-1 5,-2 8,-2 3,0 7,0 11,0 5,0 9,0 12,0 3,0 5,1 7,2 2,1 3,1 4,3 0,1 1,2 1,3l0 23c11,-11 22,-20 33,-26 10,-6 22,-9 34,-9 8,0 15,1 22,3 6,1 12,4 17,7 5,3 10,7 13,11 4,5 7,10 10,15 6,-6 11,-12 17,-16 6,-5 11,-9 17,-12 5,-2 11,-5 17,-6 5,-1 11,-2 17,-2 13,0 24,2 33,7 9,4 16,10 22,18 5,7 9,16 11,26 3,11 4,21 4,33l0 127zm223 0c0,2 0,4 -2,5 -1,1 -4,2 -7,3 -3,0 -8,0 -14,0 -7,0 -12,0 -15,0 -3,-1 -5,-2 -6,-3 -1,-1 -2,-3 -2,-5l0 -15c-8,8 -17,15 -28,20 -10,5 -22,7 -34,7 -11,0 -21,-1 -29,-4 -9,-3 -17,-7 -23,-12 -7,-6 -12,-12 -15,-20 -4,-8 -5,-18 -5,-28 0,-12 2,-22 6,-30 5,-9 12,-16 20,-21 9,-6 20,-10 34,-13 13,-2 29,-4 46,-4l19 0 0 -12c0,-6 0,-11 -1,-16 -2,-5 -4,-9 -7,-12 -3,-3 -6,-5 -11,-7 -5,-1 -11,-2 -18,-2 -9,0 -18,1 -25,3 -7,2 -14,5 -19,7 -6,3 -11,5 -14,7 -4,2 -7,3 -10,3 -1,0 -3,0 -4,-1 -1,-1 -2,-3 -3,-5 -1,-2 -1,-4 -2,-7 0,-3 -1,-6 -1,-9 0,-5 1,-8 2,-11 0,-3 2,-5 4,-7 2,-2 5,-5 11,-7 5,-3 11,-5 18,-7 7,-3 14,-5 23,-6 8,-1 16,-2 25,-2 16,0 29,1 40,4 11,4 20,8 27,15 7,6 12,14 16,24 3,10 4,21 4,35l0 133zm-55 -85l-21 0c-9,0 -17,1 -23,2 -6,2 -11,4 -15,6 -4,3 -7,6 -9,10 -2,4 -3,8 -3,13 0,8 3,15 8,19 5,5 12,8 22,8 8,0 15,-2 21,-6 7,-4 14,-10 20,-18l0 -34zm250 69c0,4 0,8 -1,11 0,3 -1,6 -2,7 0,2 -1,3 -3,4 -1,1 -2,1 -4,1l-129 0c-4,0 -7,-1 -9,-4 -3,-3 -4,-7 -4,-13l0 -10c0,-3 0,-5 1,-8 0,-2 0,-4 1,-6 1,-2 2,-4 3,-6 1,-2 2,-4 4,-7l75 -114 -71 0c-3,0 -5,-2 -7,-5 -2,-4 -2,-10 -2,-18 0,-4 0,-7 0,-10 1,-3 1,-6 2,-7 1,-2 2,-3 3,-4 1,-1 2,-1 4,-1l121 0c2,0 4,0 6,1 1,0 2,1 3,2 1,1 2,3 3,5 0,2 0,5 0,8l0 11c0,3 0,5 0,8 0,2 -1,4 -2,6 0,2 -1,4 -2,6 -1,2 -2,5 -4,7l-74 114 78 0c2,0 3,0 4,1 1,1 2,2 3,3 1,2 2,4 2,7 1,3 1,7 1,11zm234 -85c0,16 -2,32 -7,46 -4,14 -11,25 -20,36 -9,10 -20,17 -34,23 -14,5 -29,8 -48,8 -17,0 -33,-2 -46,-7 -13,-5 -23,-12 -32,-22 -9,-9 -15,-20 -19,-34 -4,-13 -6,-29 -6,-47 0,-16 2,-32 6,-46 5,-14 12,-26 21,-36 9,-10 20,-17 34,-23 13,-5 29,-8 47,-8 18,0 33,2 46,7 13,5 24,12 33,21 8,10 15,21 19,35 4,13 6,29 6,47zm-57 2c0,-10 -1,-19 -3,-27 -1,-8 -4,-16 -8,-22 -3,-6 -8,-10 -14,-14 -7,-3 -14,-5 -24,-5 -8,0 -15,2 -22,5 -6,3 -11,7 -15,13 -4,6 -7,13 -9,21 -2,8 -3,18 -3,28 0,10 1,19 2,27 2,8 5,15 8,21 4,7 9,11 15,15 6,3 14,5 23,5 9,0 16,-2 22,-5 7,-3 12,-7 16,-13 4,-6 7,-13 9,-21 2,-8 3,-18 3,-28zm290 99c0,1 0,2 -1,3 -1,2 -2,2 -4,3 -3,1 -5,2 -9,2 -4,0 -8,0 -13,0 -6,0 -11,0 -14,0 -4,0 -7,-1 -9,-2 -2,-1 -3,-1 -4,-3 -1,-1 -2,-2 -2,-3l0 -113c0,-10 0,-18 -2,-23 -1,-6 -3,-10 -6,-14 -2,-4 -6,-7 -10,-9 -4,-2 -9,-3 -15,-3 -7,0 -14,2 -21,7 -7,6 -15,13 -23,23l0 132c0,1 0,2 -1,3 -1,2 -3,2 -5,3 -2,1 -5,2 -8,2 -4,0 -8,0 -14,0 -5,0 -10,0 -13,0 -4,0 -7,-1 -9,-2 -2,-1 -4,-1 -4,-3 -1,-1 -2,-2 -2,-3l0 -199c0,-1 1,-2 1,-3 1,-2 2,-2 4,-3 2,-1 5,-2 8,-2 3,0 7,0 11,0 5,0 9,0 12,0 3,0 5,1 7,2 2,1 3,1 4,3 1,1 1,2 1,3l0 23c11,-11 22,-20 33,-26 12,-6 23,-9 36,-9 13,0 25,2 34,7 9,4 17,10 22,18 6,7 10,16 13,26 2,11 3,23 3,37l0 123z"/>
  </g>
  <g id="_1992085164336">
   <path class="fil13" d="M11198 2290c0,31 0,62 0,93 0,34 -1,54 13,81 4,9 14,19 23,23 22,12 54,10 75,-2 4,-3 10,-7 13,-11 3,-2 7,-10 10,-12l3 28 54 0c1,-15 -1,-33 -1,-49l0 -151 -63 0c0,32 0,63 0,94 0,15 2,32 -4,42 -4,10 -14,18 -28,18 -34,1 -32,-39 -32,-61 0,-31 0,-62 0,-93l-63 0zm238 0c-1,7 1,40 1,49 1,17 1,34 1,51 0,19 -1,87 0,100l62 0c1,-30 0,-62 0,-93 0,-14 -2,-30 4,-42 5,-9 15,-18 29,-19 33,-1 32,32 32,61 0,22 -1,76 0,93l63 0c1,-18 0,-71 0,-93 0,-30 1,-57 -13,-79 -20,-34 -65,-41 -97,-22 -14,8 -17,15 -24,21 -3,-4 -2,-21 -4,-27l-54 0zm289 77c1,-21 17,-39 37,-40 23,-1 36,17 36,41l-73 -1zm129 43c7,-22 0,-59 -9,-77 -22,-48 -78,-58 -123,-38 -43,19 -63,74 -54,121 9,53 50,77 101,79 22,1 59,-4 76,-13l-8 -42c-5,1 -11,3 -16,4 -33,7 -92,9 -95,-34l128 0zm-876 -143l74 0 0 223c12,1 56,-1 63,1l0 -224 75 0 0 -52 -211 0c-1,5 -1,46 -1,52zm1035 73c2,-3 11,-37 12,-43 -9,-6 -37,-11 -51,-11 -19,-1 -37,2 -51,10 -32,16 -46,52 -29,81 18,32 67,36 76,48 5,7 3,17 -3,21 -6,5 -17,5 -26,5 -19,-2 -32,-8 -48,-15 -1,2 -2,8 -3,11 -2,7 -8,29 -8,34 22,15 76,18 104,8 35,-11 54,-40 45,-75 -4,-18 -14,-26 -27,-35 -22,-14 -58,-16 -57,-35 0,-9 7,-13 16,-15 23,-3 39,8 50,11zm-1128 150l62 0 0 -200 -62 0 0 200zm24 -286c-41,8 -31,70 15,61 41,-8 30,-70 -15,-61z"/>
   <path class="fil13" d="M11443 2940c95,-2 182,-56 232,-129 44,-65 70,-139 60,-221 -31,-6 -102,25 -124,38 -105,58 -187,173 -175,297 1,13 -1,11 7,15zm642 717c-55,-15 -113,-68 -139,-102 -78,-103 -93,-255 -24,-361 52,-80 60,-71 120,-115 -11,-25 -79,-81 -110,-99 -114,-65 -209,-62 -330,-16 -173,65 -187,2 -330,-27 -67,-13 -121,-7 -179,15 -92,34 -175,115 -214,197 -102,212 -20,491 78,657 49,83 114,176 193,219 56,30 110,28 168,4 55,-21 91,-44 161,-44 47,0 80,4 122,21 31,13 59,30 95,37 109,21 191,-64 247,-138 19,-25 34,-49 53,-76 20,-29 84,-142 89,-172z"/>
  </g>
  <g id="_1992085136912">
   <g>
    <path class="fil25" d="M13262 3896l-18 114c-3,20 12,37 31,37l221 0c26,0 48,-19 52,-45l2 -11 42 -263 3 -15c4,-25 26,-44 52,-44l33 0c213,0 381,-87 429,-338 21,-105 10,-192 -44,-254 -16,-18 -36,-34 -60,-46l-146 51 -464 245 -207 65 74 504z"/>
    <path class="fil26" d="M13326 3492l2 -13 -2 13c4,-29 30,-51 59,-51l125 0c244,0 435,-99 491,-386 1,-8 3,-16 4,-24l-95 -140 -549 -6 -129 561 94 46z"/>
    <path class="fil13" d="M13398 3032c3,-18 14,-32 30,-40 7,-3 15,-5 23,-5l332 0c39,0 76,3 109,8 10,2 19,4 28,6 9,2 18,4 26,6 5,2 9,3 13,4 16,6 32,12 46,20 17,-106 0,-179 -58,-244 -63,-72 -177,-103 -323,-103l-423 0c-30,0 -55,22 -60,52l-176 1118c-4,22 13,42 36,42l261 0 66 -417 70 -447z"/>
   </g>
   <g>
    <path class="fil25" d="M13800 2306c-6,39 -36,39 -65,39l-16 0 11 -74c1,-4 5,-7 9,-7l8 0c20,0 38,0 48,11 6,7 8,17 5,31zm-12 -103l-110 0c-7,0 -14,5 -15,13l-44 281c-1,5 3,10 9,10l56 0c5,0 10,-4 11,-9l12 -79c1,-8 8,-13 15,-13l35 0c72,0 114,-35 124,-104 5,-31 1,-54 -13,-71 -16,-18 -44,-28 -80,-28zm254 203c-5,30 -29,50 -59,50 -15,0 -28,-5 -35,-14 -8,-9 -11,-22 -9,-37 5,-29 29,-50 59,-50 15,0 27,5 35,14 8,10 11,23 9,37zm73 -102l-52 0c-5,0 -9,4 -9,8l-3 15 -3 -6c-12,-16 -37,-22 -62,-22 -58,0 -108,44 -117,106 -5,31 2,60 19,80 16,19 39,27 66,27 47,0 73,-30 73,-30l-3 15c0,5 4,10 9,10l48 0c7,0 13,-5 15,-13l28 -179c1,-6 -3,-11 -9,-11zm62 -93l-45 286c-1,5 3,10 9,10l45 0c8,0 14,-5 15,-13l44 -280c0,-1 1,-1 1,-2l0 0c-1,-5 -5,-9 -10,-9l-50 0c-5,0 -9,3 -9,8z"/>
    <path class="fil13" d="M13019 2306c-6,39 -36,39 -65,39l-16 0 11 -74c1,-4 5,-7 9,-7l8 0c20,0 38,0 48,11 6,7 8,17 5,31zm-12 -103l-110 0c-7,0 -14,5 -15,13l-44 281c-1,5 3,10 9,10l52 0c8,0 14,-5 15,-13l12 -75c1,-8 8,-13 15,-13l35 0c72,0 114,-35 124,-104 5,-31 1,-54 -13,-71 -16,-18 -44,-28 -80,-28zm254 203c-5,30 -29,50 -59,50 -15,0 -28,-5 -35,-14 -8,-9 -11,-22 -9,-37 5,-29 29,-50 59,-50 15,0 27,5 35,14 8,10 11,23 9,37zm73 -102l-52 0c-5,0 -9,4 -9,8l-3 15 -3 -6c-12,-16 -37,-22 -62,-22 -58,0 -108,44 -117,106 -5,31 2,60 19,80 16,19 39,27 66,27 47,0 73,-30 73,-30l-3 15c0,5 4,10 9,10l48 0c7,0 14,-5 15,-13l28 -179c1,-6 -3,-11 -9,-11zm279 0l-52 0c-5,0 -10,3 -13,7l-73 107 -31 -103c-1,-6 -7,-11 -14,-11l-52 0c-6,0 -11,6 -9,12l58 171 -54 77c-4,6 0,14 7,14l53 0c5,0 10,-2 12,-6l176 -253c4,-6 0,-15 -8,-15z"/>
   </g>
  </g>
  <g id="_1992054145936">
   <path class="fil7" d="M8698 2488l39 -47c26,23 54,37 88,37 27,0 43,-11 43,-29l0 -1c0,-16 -10,-25 -60,-38 -60,-15 -98,-32 -98,-92l0 -1c0,-55 43,-91 104,-91 43,0 80,14 110,39l-34 50c-26,-19 -52,-30 -77,-30 -25,0 -38,11 -38,26l0 1c0,20 12,26 64,40 60,15 94,37 94,90l0 1c0,60 -45,93 -109,93 -45,0 -90,-16 -126,-48zm372 -3c-33,0 -60,-30 -60,-67 0,-38 27,-68 60,-68 33,0 60,30 60,68 0,37 -27,67 -60,67zm16 -186c-37,0 -60,13 -76,35l0 -31 -58 0 0 296 60 0 0 -97c15,19 36,34 70,34 53,0 107,-41 107,-117l0 -1c0,-76 -52,-119 -103,-119zm240 188c-35,0 -63,-31 -63,-69 0,-37 28,-68 63,-68 35,0 64,31 64,68 0,38 -29,69 -64,69zm1 -188c-69,0 -122,53 -122,119l0 1c0,66 52,118 121,118 70,0 121,-53 121,-119l0 -1c0,-66 -51,-118 -120,-118zm359 -60c0,21 -16,37 -37,37 -20,0 -36,-16 -36,-37 0,-20 16,-36 36,-36 21,0 37,16 37,36zm102 65l0 -12c0,-17 13,-24 29,-24 11,0 20,2 29,5l0 -52c-12,-3 -26,-6 -46,-6 -23,0 -39,6 -51,18 -12,12 -19,30 -19,56l0 14 -29 0 0 52 27 0 0 176 61 0 0 -176 47 0 71 174c-6,13 -16,20 -27,20 -8,0 -21,-4 -30,-9l-21 45c16,10 39,15 62,15 41,0 60,-35 67,-52l94 -244 -61 0 -54 155 -60 -155 -31 0 -58 0zm-168 0l58 0 0 228 -58 0 0 -228zm-141 163l0 -112 -28 0 0 -53 28 0 0 -60 59 0 0 60 59 0 0 53 -59 0 0 103c0,19 12,23 26,23 12,0 23,-4 33,-9l0 51c-14,8 -30,13 -51,13 -40,0 -67,-16 -67,-69z"/>
   <path class="fil7" d="M9375 2692c374,0 678,303 678,677 0,375 -304,678 -678,678 -374,0 -678,-303 -678,-678 0,-374 304,-677 678,-677zm495 546c0,49 -52,79 -95,55 -29,-17 -59,-32 -90,-44 -63,-25 -127,-42 -193,-53 -45,-8 -91,-14 -138,-17 -48,-2 -96,-3 -145,0 -55,3 -110,9 -164,20 -20,5 -40,10 -59,15 -12,4 -24,4 -36,1 -27,-8 -45,-32 -46,-60 -1,-27 16,-52 42,-60 19,-6 39,-11 58,-16 49,-11 98,-18 148,-23 53,-4 105,-6 158,-4 130,3 258,22 382,65 50,17 98,39 145,66 16,9 27,23 31,42 1,4 1,9 2,13zm-615 152c-78,0 -157,10 -235,33 -12,4 -25,4 -37,-1 -21,-8 -34,-29 -33,-50 1,-22 14,-42 36,-48 22,-7 44,-13 66,-18 55,-12 111,-18 167,-20 122,-5 240,11 355,48 59,18 115,43 167,74 3,2 6,3 8,5 28,17 31,51 18,72 -15,25 -46,33 -72,18 -15,-8 -29,-17 -44,-25 -69,-35 -141,-57 -217,-71 -58,-11 -117,-17 -179,-17zm12 115c90,1 177,13 262,42 46,15 91,36 134,61 3,2 7,4 10,7 17,13 22,36 11,55 -11,18 -33,25 -53,17 -4,-2 -7,-4 -11,-7 -72,-42 -150,-69 -232,-81 -51,-8 -101,-11 -153,-9 -66,3 -131,12 -196,26 -6,2 -13,3 -19,3 -20,0 -37,-14 -41,-33 -3,-20 7,-39 25,-47 4,-1 8,-2 13,-3 52,-12 106,-21 160,-26 30,-2 60,-3 90,-5z"/>
  </g>
 </g>
</svg>
